<svg width="2522" height="768" xmlns="http://www.w3.org/2000/svg" xmlns:xlink="http://www.w3.org/1999/xlink" xml:space="preserve" overflow="hidden"><defs><clipPath id="clip0"><rect x="283" y="256" width="2522" height="768"/></clipPath></defs><g clip-path="url(#clip0)" transform="translate(-283 -256)"><path d="M1777.52 721.461C1708.57 657.243 1704.73 549.288 1768.95 480.337 1833.17 411.387 1941.12 407.551 2010.07 471.77 2076.64 533.766 2082.86 637.084 2024.21 706.616L2037.04 725.917 1974.76 718.397 1983.07 644.733 1995.61 663.592C2032.59 607.364 2017 531.797 1960.77 494.807 1904.54 457.817 1828.97 473.412 1791.99 529.64 1759.32 579.298 1767.25 645.279 1810.74 685.791Z" fill="#D9D9D9" fill-rule="evenodd"/><rect x="826" y="543" width="164" height="48.9998"/><rect x="1039" y="543" width="164" height="48.9998"/><rect x="1252" y="543" width="164" height="48.9998"/><rect x="2419" y="556" width="105" height="31.0003" fill="#B71540"/><rect x="2419" y="616" width="105" height="30.9999" fill="#F6B93B"/><rect x="2419" y="676" width="105" height="30.9999" fill="#0F435E"/><rect x="2419" y="476" width="105" height="32"/><rect x="2555" y="556" width="106" height="31.0003" fill="#B71540"/><rect x="2555" y="616" width="106" height="30.9999" fill="#F6B93B"/><rect x="2555" y="676" width="106" height="30.9999" fill="#0F435E"/><rect x="2555" y="476" width="106" height="32"/><rect x="2692" y="556" width="105" height="31.0003" fill="#B71540"/><rect x="2692" y="616" width="105" height="30.9999" fill="#F6B93B"/><rect x="2692" y="676" width="105" height="30.9999" fill="#0F435E"/><rect x="2692" y="476" width="105" height="32"/><path d="M2419 532 2799.52 532" stroke="#000000" stroke-width="10.3125" stroke-linejoin="round" stroke-miterlimit="10" fill="none" fill-rule="evenodd"/><path d="M822 631 1416.02 631" stroke="#000000" stroke-width="10.3125" stroke-linejoin="round" stroke-miterlimit="10" fill="none" fill-rule="evenodd"/><g><g><g><path d="M-63.0225 454.121-100.65 416.49C-106.736 410.439-114.954 407.04-123.474 407.04L-214.933 407.04C-232.756 407.04-247.203 421.486-247.203 439.309L-247.199 632.917C-247.199 650.74-232.753 665.185-214.93 665.185L-85.8615 665.185C-68.1142 665.185-53.5936 650.664-53.5936 632.917L-53.5936 476.922C-53.5936 468.4-56.9716 460.181-63.0219 454.121ZM-85.8621 640.984-214.924 640.984C-219.379 640.984-222.537 637.372-222.99 633.371L-223 439.374C-223 434.919-219.389 431.308-214.933 431.308L-134.264 431.308-134.264 471.577C-134.264 480.485-127.039 487.711-118.13 487.711L-78.2483 487.711-78.2483 632.917C-77.7946 637.353-81.4248 640.984-85.8615 640.984Z" fill="#B71540" transform="matrix(1.00155 0 0 1 590.434 15.9602)"/><path d="M-216.45 640.661C-219.029 640.027-220.879 638.447-222.053 635.88L-222.811 634.223-222.735 535.639-222.659 437.053-222.02 435.871C-221.17 434.299-219.705 432.935-218.076 432.198-216.759 431.603-216.338 431.595-175.57 431.59L-134.394 431.584-134.389 452.505C-134.384 475.064-134.368 475.34-132.803 478.583-130.626 483.094-126.417 486.465-121.738 487.441-120.68 487.66-113.405 487.766-99.3386 487.766L-78.5065 487.766-78.5065 561.553C-78.5065 622.787-78.5744 635.501-78.9052 636.29-79.5319 637.786-80.818 639.124-82.4631 639.991L-83.9769 640.791-149.77 640.835C-185.956 640.86-215.961 640.784-216.45 640.661Z" stroke="#FFFFFF" stroke-width="0.295698" fill="#FFFFFF" transform="matrix(1.00155 0 0 1 590.434 15.9602)"/><path d="M-63.0225 454.121-100.65 416.49C-106.736 410.439-114.954 407.04-123.474 407.04L-214.933 407.04C-232.756 407.04-247.203 421.486-247.203 439.309L-247.199 632.917C-247.199 650.74-232.753 665.185-214.93 665.185L-85.8615 665.185C-68.1142 665.185-53.5936 650.664-53.5936 632.917L-53.5936 476.922C-53.5936 468.4-56.9716 460.181-63.0219 454.121ZM-85.8621 640.984-214.924 640.984C-219.379 640.984-222.537 637.372-222.99 633.371L-223 439.374C-223 434.919-219.389 431.308-214.933 431.308L-134.264 431.308-134.264 471.577C-134.264 480.485-127.039 487.711-118.13 487.711L-78.2483 487.711-78.2483 632.917C-77.7946 637.353-81.4248 640.984-85.8615 640.984Z" fill="#F6B93B" transform="matrix(1.00155 0 0 1 560.775 38.1703)"/><path d="M-216.45 640.661C-219.029 640.027-220.879 638.447-222.053 635.88L-222.811 634.223-222.735 535.639-222.659 437.053-222.02 435.871C-221.17 434.299-219.705 432.935-218.076 432.198-216.759 431.603-216.338 431.595-175.57 431.59L-134.394 431.584-134.389 452.505C-134.384 475.064-134.368 475.34-132.803 478.583-130.626 483.094-126.417 486.465-121.738 487.441-120.68 487.66-113.405 487.766-99.3386 487.766L-78.5065 487.766-78.5065 561.553C-78.5065 622.787-78.5744 635.501-78.9052 636.29-79.5319 637.786-80.818 639.124-82.4631 639.991L-83.9769 640.791-149.77 640.835C-185.956 640.86-215.961 640.784-216.45 640.661Z" stroke="#FFFFFF" stroke-width="0.295698" fill="#FFFFFF" transform="matrix(1.00155 0 0 1 560.775 38.1703)"/><path d="M-63.0225 454.121-100.65 416.49C-106.736 410.439-114.954 407.04-123.474 407.04L-214.933 407.04C-232.756 407.04-247.203 421.486-247.203 439.309L-247.199 632.917C-247.199 650.74-232.753 665.185-214.93 665.185L-85.8615 665.185C-68.1142 665.185-53.5936 650.664-53.5936 632.917L-53.5936 476.922C-53.5936 468.4-56.9716 460.181-63.0219 454.121ZM-85.8621 640.984-214.924 640.984C-219.379 640.984-222.537 637.372-222.99 633.371L-223 439.374C-223 434.919-219.389 431.308-214.933 431.308L-134.264 431.308-134.264 471.577C-134.264 480.485-127.039 487.711-118.13 487.711L-78.2483 487.711-78.2483 632.917C-77.7946 637.353-81.4248 640.984-85.8615 640.984Z" fill="#0A3D62" transform="matrix(1.00155 0 0 1 530.586 58.7939)"/><path d="M-216.45 640.661C-219.029 640.027-220.879 638.447-222.053 635.88L-222.811 634.223-222.735 535.639-222.659 437.053-222.02 435.871C-221.17 434.299-219.705 432.935-218.076 432.198-216.759 431.603-216.338 431.595-175.57 431.59L-134.394 431.584-134.389 452.505C-134.384 475.064-134.368 475.34-132.803 478.583-130.626 483.094-126.417 486.465-121.738 487.441-120.68 487.66-113.405 487.766-99.3386 487.766L-78.5065 487.766-78.5065 561.553C-78.5065 622.787-78.5744 635.501-78.9052 636.29-79.5319 637.786-80.818 639.124-82.4631 639.991L-83.9769 640.791-149.77 640.835C-185.956 640.86-215.961 640.784-216.45 640.661Z" stroke="#FFFFFF" stroke-width="0.295698" fill="#FFFFFF" transform="matrix(1.00155 0 0 1 530.586 58.7939)"/></g></g></g><path d="M1030.5 892.5C1030.5 835.615 1076.39 789.5 1133 789.5 1189.61 789.5 1235.5 835.615 1235.5 892.5 1235.5 949.385 1189.61 995.5 1133 995.5 1076.39 995.5 1030.5 949.385 1030.5 892.5Z" stroke="#F6B93B" stroke-width="9.16667" stroke-linejoin="round" stroke-miterlimit="10" fill="none" fill-rule="evenodd"/><text fill="#F6B93B" font-family="Calibri,Calibri_MSFontService,sans-serif" font-weight="400" font-size="110" transform="matrix(1 0 0 1 1104.95 929)">2</text><g><g><g><path d="M41.2557 7.50583 34.6288 9.98434C34.1014 10.1777 33.7499 10.6875 33.7499 11.25 33.7499 11.8125 34.1014 12.3222 34.6288 12.5156L41.2557 14.9941 43.7342 21.621C43.9276 22.1484 44.4374 22.4999 44.9999 22.4999 45.5624 22.4999 46.0721 22.1484 46.2655 21.621L48.744 14.9941 55.3709 12.5156C55.8983 12.3222 56.2498 11.8125 56.2498 11.25 56.2498 10.6875 55.8983 10.1777 55.3709 9.98434L48.744 7.50583 46.2655 0.878903C46.0721 0.351561 45.5624 0 44.9999 0 44.4374 0 43.9276 0.351561 43.7342 0.878903ZM8.10349 69.5037C4.81639 72.7908 4.81639 78.1345 8.10349 81.4392L14.1855 87.5212C17.4726 90.8083 22.8163 90.8083 26.121 87.5212L93.1462 20.4784C96.4333 17.1913 96.4333 11.8476 93.1462 8.54294L87.0642 2.47851C83.7771-0.808591 78.4333-0.808591 75.1287 2.47851ZM85.1833 14.5195 66.7263 32.9765 62.6306 28.8808 81.0876 10.4238ZM1.31835 20.6015C0.527342 20.9003 0 21.6562 0 22.4999 0 23.3437 0.527342 24.0995 1.31835 24.3984L11.25 28.1249 14.9765 38.0565C15.2753 38.8475 16.0312 39.3749 16.8749 39.3749 17.7187 39.3749 18.4745 38.8475 18.7734 38.0565L22.4999 28.1249 32.4315 24.3984C33.2225 24.0995 33.7499 23.3437 33.7499 22.4999 33.7499 21.6562 33.2225 20.9003 32.4315 20.6015L22.4999 16.8749 18.7734 6.94334C18.4745 6.15232 17.7187 5.62498 16.8749 5.62498 16.0312 5.62498 15.2753 6.15232 14.9765 6.94334L11.25 16.8749ZM63.1931 65.6013C62.4021 65.9002 61.8748 66.656 61.8748 67.4998 61.8748 68.3435 62.4021 69.0994 63.1931 69.3982L73.1248 73.1248 76.8513 83.0564C77.1501 83.8474 77.906 84.3747 78.7497 84.3747 79.5935 84.3747 80.3493 83.8474 80.6482 83.0564L84.3747 73.1248 94.3063 69.3982C95.0973 69.0994 95.6247 68.3435 95.6247 67.4998 95.6247 66.656 95.0973 65.9002 94.3063 65.6013L84.3747 61.8748 80.6482 51.9432C80.3493 51.1522 79.5935 50.6248 78.7497 50.6248 77.906 50.6248 77.1501 51.1522 76.8513 51.9432L73.1248 61.8748Z" stroke="#7F7F7F" stroke-width="0.175688" fill="#7F7F7F" transform="matrix(1.00393 0 0 1 2010 268)"/></g></g></g><path d="M294.5 892.5C294.5 835.615 340.391 789.5 397 789.5 453.609 789.5 499.5 835.615 499.5 892.5 499.5 949.385 453.609 995.5 397 995.5 340.391 995.5 294.5 949.385 294.5 892.5Z" stroke="#F6B93B" stroke-width="9.16667" stroke-linejoin="round" stroke-miterlimit="10" fill="none" fill-rule="evenodd"/><text fill="#F6B93B" font-family="Calibri,Calibri_MSFontService,sans-serif" font-weight="400" font-size="110" transform="matrix(1 0 0 1 369.005 929)">1</text><rect x="1716" y="448" width="164" height="49.0002" fill="#B71540"/><g><g><g><path d="M45 51.4286C59.2016 51.4286 70.7143 39.9158 70.7143 25.7143 70.7143 11.5127 59.2016-5.70972e-15 45-5.70972e-15 30.7985-5.70972e-15 19.2857 11.5127 19.2857 25.7143 19.2857 39.9158 30.7985 51.4286 45 51.4286ZM35.8192 61.0715C16.0313 61.0715 0 77.1027 0 96.8907 0 100.185 2.67188 102.857 5.96652 102.857L84.0335 102.857C87.3282 102.857 90.0001 100.185 90.0001 96.8907 90.0001 77.1027 73.9688 61.0715 54.1808 61.0715Z" fill="#7F7F7F" transform="matrix(1 0 0 1.00139 1724 262)"/></g></g></g><rect x="1678" y="579" width="164" height="49.0002" fill="#F6B93B"/><path d="M1863.38 636.267C1865.85 638.782 1865.45 642.519 1862.48 644.615 1861.17 645.538 1859.58 645.99 1858 645.99 1856 645.99 1854.01 645.263 1852.63 643.855L1823 613.59 1793.38 643.696C1792 645.103 1790.01 645.83 1788 645.83 1786.42 645.83 1784.83 645.378 1783.52 644.455 1780.55 642.36 1780.15 638.623 1782.63 636.107L1813.89 604.334 1782.62 572.72C1780.15 570.204 1780.55 566.467 1783.52 564.372 1786.49 562.271 1790.9 562.608 1793.38 565.13L1823 595.23 1852.62 565.124C1855.09 562.608 1859.5 562.267 1862.47 564.365 1865.44 566.461 1865.84 570.198 1863.37 572.714L1832.11 604.487Z" fill="#60A3BC" fill-rule="evenodd"/><path d="M1898.84 436.11C1901.72 438.962 1901.72 443.571 1898.84 446.423L1839.98 504.829C1837.11 507.681 1832.47 507.681 1829.59 504.829L1800.15 475.626C1797.28 472.774 1797.28 468.165 1800.15 465.313 1803.03 462.462 1807.69 462.462 1810.56 465.313L1834.58 489.338 1888.45 436.11C1891.33 433.254 1895.97 433.254 1898.84 436.11Z" fill="#60A3BC" fill-rule="evenodd"/><rect x="1990" y="543" width="164" height="48.9998" fill="#0F435E"/><g><g><g><path d="M44.6249 50.9999C58.708 50.9999 70.1248 39.5831 70.1248 25.4999 70.1248 11.4167 58.708-5.66212e-15 44.6249-5.66212e-15 30.5417-5.66212e-15 19.125 11.4167 19.125 25.4999 19.125 39.5831 30.5417 50.9999 44.6249 50.9999ZM35.5206 60.5623C15.8976 60.5623 0 76.46 0 96.083 0 99.3501 2.6496 102 5.91678 102L83.333 102C86.6002 102 89.2498 99.3501 89.2498 96.083 89.2498 76.46 73.3522 60.5623 53.7292 60.5623Z" fill="#7F7F7F" transform="matrix(1.00841 0 0 1 1076 256)"/></g></g></g><g><g><g><path d="M44.5 50.8572C58.5437 50.8572 69.9286 39.4723 69.9286 25.4286 69.9286 11.3848 58.5437-5.64628e-15 44.5-5.64628e-15 30.4563-5.64628e-15 19.0714 11.3848 19.0714 25.4286 19.0714 39.4723 30.4563 50.8572 44.5 50.8572ZM35.4212 60.3929C15.8531 60.3929 0 76.246 0 95.8141 0 99.0721 2.64219 101.714 5.90023 101.714L83.0998 101.714C86.3578 101.714 89 99.0721 89 95.8141 89 76.246 73.1469 60.3929 53.5788 60.3929Z" fill="#7F7F7F" transform="matrix(1 0 0 1.00281 310 256)"/></g></g></g><g><g><g><path d="M41.2557 7.50583 34.6288 9.98434C34.1014 10.1777 33.7499 10.6875 33.7499 11.25 33.7499 11.8125 34.1014 12.3222 34.6288 12.5156L41.2557 14.9941 43.7342 21.621C43.9276 22.1484 44.4374 22.4999 44.9999 22.4999 45.5624 22.4999 46.0721 22.1484 46.2655 21.621L48.744 14.9941 55.3709 12.5156C55.8983 12.3222 56.2498 11.8125 56.2498 11.25 56.2498 10.6875 55.8983 10.1777 55.3709 9.98434L48.744 7.50583 46.2655 0.878903C46.0721 0.351561 45.5624 0 44.9999 0 44.4374 0 43.9276 0.351561 43.7342 0.878903ZM8.10349 69.5037C4.81639 72.7908 4.81639 78.1345 8.10349 81.4392L14.1855 87.5212C17.4726 90.8083 22.8163 90.8083 26.121 87.5212L93.1462 20.4784C96.4333 17.1913 96.4333 11.8476 93.1462 8.54294L87.0642 2.47851C83.7771-0.808591 78.4333-0.808591 75.1287 2.47851ZM85.1833 14.5195 66.7263 32.9765 62.6306 28.8808 81.0876 10.4238ZM1.31835 20.6015C0.527342 20.9003 0 21.6562 0 22.4999 0 23.3437 0.527342 24.0995 1.31835 24.3984L11.25 28.1249 14.9765 38.0565C15.2753 38.8475 16.0312 39.3749 16.8749 39.3749 17.7187 39.3749 18.4745 38.8475 18.7734 38.0565L22.4999 28.1249 32.4315 24.3984C33.2225 24.0995 33.7499 23.3437 33.7499 22.4999 33.7499 21.6562 33.2225 20.9003 32.4315 20.6015L22.4999 16.8749 18.7734 6.94334C18.4745 6.15232 17.7187 5.62498 16.8749 5.62498 16.0312 5.62498 15.2753 6.15232 14.9765 6.94334L11.25 16.8749ZM63.1931 65.6013C62.4021 65.9002 61.8748 66.656 61.8748 67.4998 61.8748 68.3435 62.4021 69.0994 63.1931 69.3982L73.1248 73.1248 76.8513 83.0564C77.1501 83.8474 77.906 84.3747 78.7497 84.3747 79.5935 84.3747 80.3493 83.8474 80.6482 83.0564L84.3747 73.1248 94.3063 69.3982C95.0973 69.0994 95.6247 68.3435 95.6247 67.4998 95.6247 66.656 95.0973 65.9002 94.3063 65.6013L84.3747 61.8748 80.6482 51.9432C80.3493 51.1522 79.5935 50.6248 78.7497 50.6248 77.906 50.6248 77.1501 51.1522 76.8513 51.9432L73.1248 61.8748Z" stroke="#7F7F7F" stroke-width="0.175688" fill="#7F7F7F" transform="matrix(1.00392 0 0 1 422 268)"/></g></g></g><path d="M1777.5 892.5C1777.5 835.615 1823.39 789.5 1880 789.5 1936.61 789.5 1982.5 835.615 1982.5 892.5 1982.5 949.385 1936.61 995.5 1880 995.5 1823.39 995.5 1777.5 949.385 1777.5 892.5Z" stroke="#F6B93B" stroke-width="9.16667" stroke-linejoin="round" stroke-miterlimit="10" fill="none" fill-rule="evenodd"/><text fill="#F6B93B" font-family="Calibri,Calibri_MSFontService,sans-serif" font-weight="400" font-size="110" transform="matrix(1 0 0 1 1851.89 929)">3</text><g><g><g><path d="M41.2557 7.50583 34.6288 9.98434C34.1014 10.1777 33.7499 10.6875 33.7499 11.25 33.7499 11.8125 34.1014 12.3222 34.6288 12.5156L41.2557 14.9941 43.7342 21.621C43.9276 22.1484 44.4374 22.4999 44.9999 22.4999 45.5624 22.4999 46.0721 22.1484 46.2655 21.621L48.744 14.9941 55.3709 12.5156C55.8983 12.3222 56.2498 11.8125 56.2498 11.25 56.2498 10.6875 55.8983 10.1777 55.3709 9.98434L48.744 7.50583 46.2655 0.878903C46.0721 0.351561 45.5624 0 44.9999 0 44.4374 0 43.9276 0.351561 43.7342 0.878903ZM8.10349 69.5037C4.81639 72.7908 4.81639 78.1345 8.10349 81.4392L14.1855 87.5212C17.4726 90.8083 22.8163 90.8083 26.121 87.5212L93.1462 20.4784C96.4333 17.1913 96.4333 11.8476 93.1462 8.54294L87.0642 2.47851C83.7771-0.808591 78.4333-0.808591 75.1287 2.47851ZM85.1833 14.5195 66.7263 32.9765 62.6306 28.8808 81.0876 10.4238ZM1.31835 20.6015C0.527342 20.9003 0 21.6562 0 22.4999 0 23.3437 0.527342 24.0995 1.31835 24.3984L11.25 28.1249 14.9765 38.0565C15.2753 38.8475 16.0312 39.3749 16.8749 39.3749 17.7187 39.3749 18.4745 38.8475 18.7734 38.0565L22.4999 28.1249 32.4315 24.3984C33.2225 24.0995 33.7499 23.3437 33.7499 22.4999 33.7499 21.6562 33.2225 20.9003 32.4315 20.6015L22.4999 16.8749 18.7734 6.94334C18.4745 6.15232 17.7187 5.62498 16.8749 5.62498 16.0312 5.62498 15.2753 6.15232 14.9765 6.94334L11.25 16.8749ZM63.1931 65.6013C62.4021 65.9002 61.8748 66.656 61.8748 67.4998 61.8748 68.3435 62.4021 69.0994 63.1931 69.3982L73.1248 73.1248 76.8513 83.0564C77.1501 83.8474 77.906 84.3747 78.7497 84.3747 79.5935 84.3747 80.3493 83.8474 80.6482 83.0564L84.3747 73.1248 94.3063 69.3982C95.0973 69.0994 95.6247 68.3435 95.6247 67.4998 95.6247 66.656 95.0973 65.9002 94.3063 65.6013L84.3747 61.8748 80.6482 51.9432C80.3493 51.1522 79.5935 50.6248 78.7497 50.6248 77.906 50.6248 77.1501 51.1522 76.8513 51.9432L73.1248 61.8748Z" stroke="#7F7F7F" stroke-width="0.175688" fill="#7F7F7F" transform="matrix(1.00393 0 0 1 2560 268)"/></g></g></g><path d="M2505.5 892.5C2505.5 835.615 2551.61 789.5 2608.5 789.5 2665.39 789.5 2711.5 835.615 2711.5 892.5 2711.5 949.385 2665.39 995.5 2608.5 995.5 2551.61 995.5 2505.5 949.385 2505.5 892.5Z" stroke="#F6B93B" stroke-width="9.16667" stroke-linejoin="round" stroke-miterlimit="10" fill="none" fill-rule="evenodd"/><text fill="#F6B93B" font-family="Calibri,Calibri_MSFontService,sans-serif" font-weight="400" font-size="64" transform="matrix(1 0 0 1 2591.65 913)">4</text></g></svg>