<svg width="96" height="96" xmlns="http://www.w3.org/2000/svg" overflow="hidden">
    <defs>
        <clipPath id="clip0">
            <rect x="1842" y="1842" width="96" height="96"/>
        </clipPath>
    </defs>
    <g clip-path="url(#clip0)" transform="translate(-1842 -1842)">
        <path d="M1870.9 1879 1921 1879 1921 1874C1921 1871.8 1919.2 1870 1917 1870L1887 1870 1876 1862.7C1875.3 1862.3 1874.6 1862 1873.8 1862L1855 1862C1852.8 1862 1851 1863.8 1851 1866L1851 1915C1851 1915.2 1863.9 1883.7 1863.9 1883.7 1865.1 1880.9 1867.8 1879 1870.9 1879Z"/>
        <path d="M1929 1887C1929 1884.9 1927.5 1883.2 1925.4 1883L1870.9 1883C1869.4 1883 1868.1 1883.9 1867.5 1885.2L1854 1918 1915 1918 1928.6 1888.8C1928.9 1888.2 1929 1887.6 1929 1887L1929 1887Z"/>
    </g>
</svg>