<svg width="96" height="96" xmlns="http://www.w3.org/2000/svg" xml:space="preserve" overflow="hidden"><defs><clipPath id="clip0"><rect x="747" y="347" width="96" height="96"/></clipPath></defs>
    <g clip-path="url(#clip0)" transform="translate(-747 -347)"><path d="M803.471 421.792 786.26 421.792C784.668 421.792 783.378 423.082 783.378 424.674 783.378 426.266 784.668 427.556 786.26 427.556L803.471 427.556C805.063 427.556 806.353 426.266 806.353 424.674 806.353 423.082 805.063 421.792 803.471 421.792Z"/>
        <path d="M794.866 437.328C798.134 437.328 800.853 434.814 801.109 431.556L788.622 431.556C788.878 434.815 791.597 437.328 794.866 437.328Z"/>
        <path d="M819.839 391.474 819.839 390.61C819.59 376.969 808.509 366.016 794.866 365.924L794.866 365.924C781.222 366.014 770.14 376.968 769.89 390.61L769.89 391.474C769.983 394.432 770.571 397.355 771.629 400.119 772.641 402.728 774.112 405.135 775.97 407.227 778.256 409.727 780.763 414.575 781.82 416.727 782.144 417.38 782.81 417.793 783.539 417.793L806.19 417.793C806.919 417.793 807.585 417.38 807.91 416.727 808.966 414.576 811.473 409.727 813.759 407.227 815.617 405.135 817.088 402.728 818.1 400.119 819.158 397.354 819.745 394.432 819.839 391.474ZM814.076 391.374C813.989 393.676 813.524 395.949 812.7 398.1 811.938 400.039 810.839 401.828 809.453 403.383 807.251 406.037 805.366 408.938 803.834 412.027L785.892 412.027C784.361 408.938 782.475 406.037 780.273 403.383 778.887 401.828 777.788 400.039 777.027 398.1 776.203 395.949 775.739 393.677 775.653 391.376L775.653 390.656C775.847 380.167 784.373 371.748 794.864 371.687L794.864 371.687C805.355 371.748 813.882 380.168 814.074 390.658Z"/>
        <path d="M795.062 362C796.167 362 797.062 361.105 797.062 360L797.062 353C797.062 351.895 796.167 351 795.062 351 793.957 351 793.062 351.895 793.062 353L793.062 360C793.062 361.105 793.957 362 795.062 362Z"/>
        <path d="M771.326 370.8C772.093 371.595 773.359 371.617 774.154 370.849 774.948 370.082 774.971 368.816 774.203 368.021 774.187 368.004 774.171 367.988 774.154 367.972L769.2 363.018C768.406 362.251 767.139 362.273 766.372 363.067 765.623 363.842 765.623 365.071 766.372 365.846Z"/>
        <path d="M817.411 371.761C817.941 371.761 818.45 371.55 818.825 371.175L823.774 366.225C824.525 365.415 824.478 364.15 823.668 363.399 822.9 362.686 821.713 362.687 820.946 363.4L816 368.347C815.219 369.128 815.219 370.395 816 371.175 816.375 371.55 816.884 371.761 817.414 371.761Z"/>
        <path d="M764 388.5 757 388.5C755.895 388.5 755 389.395 755 390.5 755 391.605 755.895 392.5 757 392.5L764 392.5C765.105 392.5 766 391.605 766 390.5 766 389.395 765.105 388.5 764 388.5Z"/>
        <path d="M771.326 410.136 766.376 415.086C765.563 415.833 765.509 417.099 766.257 417.912 767.004 418.725 768.27 418.779 769.083 418.031 769.123 417.994 769.163 417.955 769.2 417.914L774.15 412.964C774.945 412.197 774.966 410.931 774.199 410.136 773.432 409.341 772.166 409.319 771.371 410.087 771.354 410.103 771.338 410.119 771.322 410.136Z"/>
        <path d="M818.825 409.757C818.073 408.948 816.807 408.902 815.998 409.654 815.19 410.406 815.143 411.672 815.896 412.481 815.929 412.517 815.964 412.552 816 412.585L820.949 417.534C821.744 418.301 823.01 418.279 823.777 417.485 824.526 416.71 824.526 415.481 823.777 414.706Z"/>
        <path d="M832.75 388.432 825.75 388.432C824.645 388.432 823.75 389.327 823.75 390.432 823.75 391.537 824.645 392.432 825.75 392.432L832.75 392.432C833.855 392.432 834.75 391.537 834.75 390.432 834.75 389.327 833.855 388.432 832.75 388.432Z"/></g></svg>