<svg width="96" height="96" xmlns="http://www.w3.org/2000/svg" xml:space="preserve" overflow="hidden"><defs><clipPath id="clip0"><rect x="592" y="312" width="96" height="96"/></clipPath></defs>
    <g clip-path="url(#clip0)" transform="translate(-592 -312)"><path d="M640 322C619 322 602 339 602 360 602 381 619 398 640 398 661 398 678 381 678 360 678 339 661 322 640 322ZM638 332C640.8 332 643 334.2 643 337 643 339.8 640.8 342 638 342 635.2 342 633 339.8 633 337 633 334.2 635.2 332 638 332ZM650 388 630 388 630 382 637 382 637 352 631 352 631 346 643 346 643 352 643 382 650 382 650 388Z"/></g></svg>