<svg width="96" height="96" xmlns="http://www.w3.org/2000/svg" overflow="hidden">
    <defs>
        <clipPath id="clip0">
            <rect x="446" y="305" width="96" height="96"/>
        </clipPath>
    </defs>
    <g clip-path="url(#clip0)" transform="translate(-446 -305)">
        <path d="M482.315 396 456 385.1 456 319.999 482.315 309.099 482.315 396Z"/>
        <path d="M509.068 330.866 509.068 343.366 486.315 343.366 486.315 359.366 509.068 359.366 509.068 371.866 533.068 351.366 509.068 330.866Z"/>
        <path d="M497.068 339.366 503.068 339.366 503.068 319.366 486.315 319.366 486.315 325.366 497.068 325.366 497.068 339.366Z"/>
        <path d="M497.068 363.366 497.068 379.366 486.315 379.366 486.315 385.366 503.068 385.366 503.068 363.366 497.068 363.366Z"/>
    </g>
</svg>