<svg width="96" height="96" xmlns="http://www.w3.org/2000/svg" xml:space="preserve" overflow="hidden"><defs><clipPath id="clip0"><rect x="592" y="312" width="96" height="96"/></clipPath></defs>
    <g clip-path="url(#clip0)" transform="translate(-592 -312)"><path d="M640 368C635.582 368 632 364.418 632 360 632 355.582 635.582 352 640 352 644.418 352 648 355.582 648 360 648 364.418 644.418 368 640 368ZM640 356C637.791 356 636 357.791 636 360 636 362.209 637.791 364 640 364 642.209 364 644 362.209 644 360 644 357.791 642.209 356 640 356Z"/>
        <path d="M675 358C673.951 340.227 659.773 326.049 642 325L642 319 638 319 638 325C620.227 326.049 606.049 340.227 605 358L599 358 599 362 605 362C606.049 379.773 620.227 393.951 638 395L638 401 642 401 642 395C659.773 393.951 673.951 379.773 675 362L681 362 681 358ZM660.16 362C659.199 371.603 651.603 379.199 642 380.16L642 372 638 372 638 380.16C628.397 379.199 620.801 371.603 619.84 362L628 362 628 358 619.84 358C620.801 348.397 628.397 340.801 638 339.84L638 348 642 348 642 339.84C651.603 340.801 659.199 348.397 660.16 358L652 358 652 362ZM638 331 638 335.83C626.189 336.822 616.817 346.19 615.82 358L611 358C612.028 343.536 623.536 332.028 638 331ZM611 362 615.83 362C616.822 373.811 626.19 383.183 638 384.18L638 389C623.536 387.972 612.028 376.464 611 362ZM642 389 642 384.18C653.814 383.187 663.187 373.814 664.18 362L669 362C667.972 376.464 656.464 387.972 642 389ZM664.18 358C663.187 346.186 653.814 336.813 642 335.82L642 331C656.464 332.028 667.972 343.536 669 358Z"/></g></svg>