<svg width="96" height="96" xmlns="http://www.w3.org/2000/svg" overflow="hidden">
    <defs>
        <clipPath id="clip0">
            <rect x="592" y="312" width="96" height="96"/>
        </clipPath>
    </defs>
    <g clip-path="url(#clip0)" transform="translate(-592 -312)">
        <path d="M677.5 387.6 665 375.1C663.3 373.4 661 372.8 658.8 373.2L654.4 368.8C658.3 363.8 660.6 357.4 660.6 350.6 660.6 334.1 647.1 320.6 630.6 320.6 614.1 320.6 600.6 334.1 600.6 350.6 600.6 367.1 614.1 380.6 630.6 380.6 637.4 380.6 643.7 378.3 648.8 374.4L653.2 378.8C652.8 381 653.4 383.3 655.1 385L667.6 397.5C669 398.9 670.8 399.6 672.6 399.6 674.4 399.6 676.2 398.9 677.6 397.5 680.2 394.7 680.2 390.3 677.5 387.6ZM630.5 374.5C617.3 374.5 606.5 363.7 606.5 350.5 606.5 337.3 617.3 326.5 630.5 326.5 643.7 326.5 654.5 337.3 654.5 350.5 654.5 363.7 643.7 374.5 630.5 374.5Z"/>
    </g>
</svg>