<svg width="96" height="96" xmlns="http://www.w3.org/2000/svg" xml:space="preserve" overflow="hidden"><defs><clipPath id="clip0"><rect x="339" y="147" width="96" height="96"/></clipPath></defs>
    <g clip-path="url(#clip0)" transform="translate(-339 -147)"><path d="M364 218.1C366 220.1 366 223.2 364 225.2L355.5 228 354 226.5 356.8 218C358.9 216.1 362 216.1 364 218.1ZM403.3 165.9 353.3 216 347 235 366.1 228.7 416.1 178.7"/>
        <path d="M425.9 163.2 418.8 156.1C417.2 154.5 414.7 154.5 413.1 156.1L406.1 163.1 418.8 175.8 425.8 168.8C427.5 167.3 427.5 164.8 425.9 163.2Z"/></g></svg>