<svg width="96" height="96" xmlns="http://www.w3.org/2000/svg" overflow="hidden">
    <defs>
        <clipPath id="clip0">
            <rect x="664" y="433" width="96" height="96"/>
        </clipPath>
    </defs>
    <g clip-path="url(#clip0)" transform="translate(-664 -433)">
        <path d="M674 467 674 446 680.7 452.7C687.4 446.7 696.3 443 706 443 727 443 744 460 744 481 744 502 727 519 706 519 695.5 519 686 514.7 679.1 507.9L687.6 499.4C692.3 504.1 698.8 507 706 507 720.3 507 732 495.3 732 481 732 466.7 720.3 455 706 455 699.6 455 693.7 457.3 689.2 461.2L695 467 674 467Z"/>
    </g>
</svg>