<svg width="96" height="96" xmlns="http://www.w3.org/2000/svg" overflow="hidden">
    <defs>
        <clipPath id="clip0">
            <rect x="798" y="486" width="96" height="96"/>
        </clipPath>
    </defs>
    <g clip-path="url(#clip0)" transform="translate(-798 -486)">
        <path d="M832 510 838 510 838 525 832 525Z"/>
        <path d="M864 529 828 529 828 506 864 506 864 529ZM846 555C840.5 555 836 550.5 836 545 836 539.5 840.5 535 846 535 851.5 535 856 539.5 856 545 856 550.5 851.5 555 846 555ZM876 500 864 500 828 500 822 500 812 510 812 564C812 566.2 813.8 568 816 568L876 568C878.2 568 880 566.2 880 564L880 504C880 501.8 878.2 500 876 500Z"/>
        <path d="M843 542 849 542 849 548 843 548Z"/>
    </g>
</svg>