<svg width="330" height="330" xmlns="http://www.w3.org/2000/svg" overflow="hidden">
    <defs>
        <clipPath id="clip0">
            <rect x="378" y="116" width="330" height="330"/>
        </clipPath>
        <clipPath id="clip1">
            <rect x="553" y="290" width="156" height="156"/>
        </clipPath>
        <clipPath id="clip2">
            <rect x="553" y="290" width="156" height="156"/>
        </clipPath>
        <clipPath id="clip3">
            <rect x="553" y="290" width="156" height="156"/>
        </clipPath>
    </defs>
    <g clip-path="url(#clip0)" transform="translate(-378 -116)">
        <g clip-path="url(#clip1)">
            <g clip-path="url(#clip2)">
                <g clip-path="url(#clip3)">
                    <path d="M54.8958 38.75 64.5834 38.75 64.5834 62.9688 54.8958 62.9688Z"
                          transform="matrix(1 0 0 1.00645 553 290)"/>
                    <path d="M106.563 69.4271 48.4375 69.4271 48.4375 32.2917 106.563 32.2917 106.563 69.4271ZM77.5 111.406C68.6198 111.406 61.3542 104.141 61.3542 95.2604 61.3542 86.3802 68.6198 79.1146 77.5 79.1146 86.3802 79.1146 93.6459 86.3802 93.6459 95.2604 93.6459 104.141 86.3802 111.406 77.5 111.406ZM125.938 22.6042 106.563 22.6042 48.4375 22.6042 38.75 22.6042 22.6042 38.75 22.6042 125.938C22.6042 129.49 25.5104 132.396 29.0625 132.396L125.938 132.396C129.49 132.396 132.396 129.49 132.396 125.938L132.396 29.0625C132.396 25.5104 129.49 22.6042 125.938 22.6042Z"
                          transform="matrix(1 0 0 1.00645 553 290)"/>
                    <path d="M72.6563 90.4167 82.3438 90.4167 82.3438 100.104 72.6563 100.104Z"
                          transform="matrix(1 0 0 1.00645 553 290)"/>
                </g>
            </g>
        </g>
        <path d="M446.75 164.125 426.125 164.125 426.125 397.875 659.875 397.875 659.875 377.25 446.75 377.25Z"/>
        <path d="M467.375 236.312 505.188 236.312 505.188 356.625 467.375 356.625Z"/>
        <path d="M518.938 164.125 556.75 164.125 556.75 356.625 518.938 356.625Z"/>
        <path d="M570.5 236.312 608.313 236.312 608.313 356.625 570.5 356.625Z"/>
        <path d="M622.063 294.75 659.875 294.75 659.875 356.625 622.063 356.625Z"/>
    </g>
</svg>