<svg width="330" height="330" xmlns="http://www.w3.org/2000/svg" overflow="hidden">
    <defs>
        <clipPath id="clip0">
            <rect x="734" y="152" width="330" height="330"/>
        </clipPath>
        <clipPath id="clip1">
            <rect x="907" y="325" width="157" height="156"/>
        </clipPath>
        <clipPath id="clip2">
            <rect x="907" y="325" width="157" height="156"/>
        </clipPath>
        <clipPath id="clip3">
            <rect x="907" y="325" width="157" height="156"/>
        </clipPath>
    </defs>
    <g clip-path="url(#clip0)" transform="translate(-734 -152)">
        <path d="M802.75 200.125 782.125 200.125 782.125 433.875 1015.87 433.875 1015.87 413.25 802.75 413.25Z"/>
        <path d="M823.375 272.312 861.187 272.312 861.187 392.625 823.375 392.625Z"/>
        <path d="M874.937 200.125 912.75 200.125 912.75 392.625 874.937 392.625Z"/>
        <path d="M926.5 272.312 964.312 272.312 964.312 392.625 926.5 392.625Z"/>
        <path d="M978.062 330.75 1015.87 330.75 1015.87 392.625 978.062 392.625Z"/>
        <g clip-path="url(#clip1)">
            <g clip-path="url(#clip2)">
                <g clip-path="url(#clip3)">
                    <path d="M46.6615 59.7396 127.552 59.7396 127.552 51.6667C127.552 48.1146 124.646 45.2083 121.094 45.2083L72.6563 45.2083 54.8958 33.4219C53.7656 32.776 52.6354 32.2917 51.3438 32.2917L20.9896 32.2917C17.4375 32.2917 14.5313 35.1979 14.5313 38.75L14.5313 117.865C14.5313 118.188 35.3594 67.3281 35.3594 67.3281 37.2969 62.8073 41.6563 59.7396 46.6615 59.7396Z"
                          transform="matrix(1.00645 0 0 1 908 326)"/>
                    <path d="M140.469 72.6563C140.469 69.2656 138.047 66.5209 134.656 66.1979L46.6615 66.1979C44.2396 66.1979 42.1406 67.6511 41.1719 69.75L19.375 122.708 117.865 122.708 139.823 75.5625C140.307 74.5938 140.469 73.625 140.469 72.6563L140.469 72.6563Z"
                          transform="matrix(1.00645 0 0 1 908 326)"/>
                </g>
            </g>
        </g>
    </g>
</svg>