<svg width="96" height="96" xmlns="http://www.w3.org/2000/svg" overflow="hidden">
    <defs>
        <clipPath id="clip0">
            <rect x="309" y="416" width="96" height="96"/>
        </clipPath>
    </defs>
    <g clip-path="url(#clip0)" transform="translate(-309 -416)">
        <path d="M391 454 371 454 371 442 391 442 391 454ZM391 470 371 470 371 458 391 458 391 470ZM391 486 371 486 371 474 391 474 391 486ZM347 486 347 474 367 474 367 486 347 486ZM323 486 323 474 343 474 343 486 323 486ZM323 458 343 458 343 470 323 470 323 458ZM323 442 343 442 343 454 323 454 323 442ZM367 458 367 470 347 470 347 458 367 458ZM367 442 367 454 347 454 347 442 367 442ZM317 436 317 492 397 492 397 436 317 436Z"/>
    </g>
</svg>