<svg width="96" height="96" xmlns="http://www.w3.org/2000/svg" overflow="hidden">
    <defs>
        <clipPath id="clip0">
            <rect x="581" y="424" width="96" height="96"/>
        </clipPath>
    </defs>
    <g clip-path="url(#clip0)" transform="translate(-581 -424)">
        <path d="M663.1 446.9 656 445 654.1 437.9 663.1 428.9C657.7 426.9 651.7 428 647.4 431.9 643.2 435.8 641.4 441.7 643 447.2L604.2 486C598.7 484.5 592.8 486.3 589 490.5 585.2 494.7 584 500.7 586 506.1L595 497.1 602 499 603.9 506.1 594.9 515.1C600.3 517.1 606.3 516 610.6 512.1 614.8 508.2 616.6 502.3 615 496.8L653.8 458C659.3 459.5 665.2 457.7 669 453.5 672.8 449.3 674 443.3 672 437.9L663.1 446.9Z"/>
    </g>
</svg>