<svg width="96" height="96" xmlns="http://www.w3.org/2000/svg" overflow="hidden">
    <defs>
        <clipPath id="clip0">
            <rect x="816" y="433" width="96" height="96"/>
        </clipPath>
    </defs>
    <g clip-path="url(#clip0)" transform="translate(-816 -433)">
        <path d="M894 453 877 453 877 448C877 444.1 873.9 441 870 441L858 441C854.1 441 851 444.1 851 448L851 453 834 453C831.8 453 830 454.8 830 457L830 461 898 461 898 457C898 454.8 896.2 453 894 453ZM857 448C857 447.4 857.4 447 858 447L870 447C870.6 447 871 447.4 871 448L871 453 857 453 857 448Z"/>
        <path d="M836 517C836 519.2 837.8 521 840 521L888 521C890.2 521 892 519.2 892 517L892 465 836 465 836 517ZM877 471 883 471 883 515 877 515 877 471ZM861 471 867 471 867 515 861 515 861 471ZM845 471 851 471 851 515 845 515 845 471Z"/>
    </g>
</svg>