<svg width="330" height="330" xmlns="http://www.w3.org/2000/svg" overflow="hidden">
    <defs>
        <clipPath id="clip0">
            <rect x="528" y="924" width="330" height="330"/>
        </clipPath>
        <clipPath id="clip1">
            <rect x="528" y="924" width="246" height="246"/>
        </clipPath>
        <clipPath id="clip2">
            <rect x="528" y="924" width="246" height="246"/>
        </clipPath>
        <clipPath id="clip3">
            <rect x="528" y="924" width="246" height="246"/>
        </clipPath>
        <clipPath id="clip4">
            <rect x="613" y="1009" width="245" height="245"/>
        </clipPath>
        <clipPath id="clip5">
            <rect x="613" y="1009" width="245" height="245"/>
        </clipPath>
        <clipPath id="clip6">
            <rect x="613" y="1009" width="245" height="245"/>
        </clipPath>
    </defs>
    <g clip-path="url(#clip0)" transform="translate(-528 -924)">
        <g clip-path="url(#clip1)">
            <g clip-path="url(#clip2)">
                <g clip-path="url(#clip3)">
                    <path d="M586.698 1133.27 586.698 959.729 650.5 959.729 650.5 1013.32 714.302 1013.32 714.302 1133.27 586.698 1133.27ZM665.813 966.109 697.714 998.01 665.813 998.01 665.813 966.109ZM665.813 944.417 571.385 944.417 571.385 1148.58 729.615 1148.58 729.615 1000.56 665.813 944.417Z"/>
                    <path d="M602.01 1038.84 698.99 1038.84 698.99 1049.05 602.01 1049.05Z"/>
                    <path d="M602.01 1018.43 635.188 1018.43 635.188 1028.64 602.01 1028.64Z"/>
                    <path d="M602.01 1059.26 698.99 1059.26 698.99 1069.47 602.01 1069.47Z"/>
                    <path d="M602.01 1079.68 698.99 1079.68 698.99 1089.89 602.01 1089.89Z"/>
                    <path d="M602.01 1100.09 698.99 1100.09 698.99 1110.3 602.01 1110.3Z"/>
                </g>
            </g>
        </g>
        <g clip-path="url(#clip4)">
            <g clip-path="url(#clip5)">
                <g clip-path="url(#clip6)">
                    <path d="M672.458 1218.42 672.458 1045.58 736 1045.58 736 1098.96 799.542 1098.96 799.542 1218.42 672.458 1218.42ZM751.25 1051.94 783.021 1083.71 751.25 1083.71 751.25 1051.94ZM751.25 1030.33 657.208 1030.33 657.208 1233.67 814.792 1233.67 814.792 1086.25 751.25 1030.33Z"/>
                    <path d="M687.708 1124.38 784.292 1124.38 784.292 1134.54 687.708 1134.54Z"/>
                    <path d="M687.708 1104.04 720.75 1104.04 720.75 1114.21 687.708 1114.21Z"/>
                    <path d="M687.708 1144.71 784.292 1144.71 784.292 1154.88 687.708 1154.88Z"/>
                    <path d="M687.708 1165.04 784.292 1165.04 784.292 1175.21 687.708 1175.21Z"/>
                    <path d="M687.708 1185.38 784.292 1185.38 784.292 1195.54 687.708 1195.54Z"/>
                </g>
            </g>
        </g>
    </g>
</svg>